<?xml version="1.0" standalone="no"?>
<!DOCTYPE svg PUBLIC "-//W3C//DTD SVG 20010904//EN"
 "http://www.w3.org/TR/2001/REC-SVG-20010904/DTD/svg10.dtd">
<svg version="1.0" xmlns="http://www.w3.org/2000/svg"
 width="500.000000pt" height="500.000000pt" viewBox="0 0 500.000000 500.000000"
 preserveAspectRatio="xMidYMid meet">
<metadata>
Created by potrace 1.14, written by Peter Selinger 2001-2017
</metadata>
<g transform="translate(0.000000,500.000000) scale(0.100000,-0.100000)"
fill="#000000" stroke="none">
<path d="M2548 4966 c-1 -2 -79 -6 -173 -9 -93 -4 -181 -8 -195 -11 -14 -3
-41 -7 -60 -10 -668 -101 -1286 -497 -1668 -1066 -171 -256 -303 -567 -362
-855 -29 -144 -34 -175 -45 -295 -4 -47 -5 -397 -1 -436 6 -56 18 -148 21
-165 2 -9 6 -34 9 -55 26 -165 150 -546 208 -639 3 -5 26 -49 51 -96 55 -106
154 -257 243 -369 75 -94 271 -294 349 -356 28 -21 52 -41 55 -44 17 -19 159
-117 235 -163 241 -146 548 -268 790 -311 17 -3 41 -8 55 -11 34 -7 161 -25
213 -30 51 -5 400 -5 442 -1 17 2 59 7 95 11 100 10 368 68 430 92 8 3 20 7
25 9 6 1 58 20 116 42 240 90 514 252 714 421 50 43 278 274 305 310 14 18 39
50 57 72 41 51 151 218 193 294 132 238 213 461 275 759 4 18 16 109 30 217 7
60 7 378 0 449 -52 516 -246 980 -575 1375 -51 62 -277 283 -335 327 -163 126
-346 239 -523 321 -99 47 -365 140 -427 150 -16 3 -73 14 -125 25 -115 25
-165 31 -295 38 -55 3 -105 7 -112 9 -6 2 -13 2 -15 1z"/>
</g>
</svg>
